<svg width="1030" height="1000" viewBox="0 0 1030 1000" xmlns="http://www.w3.org/2000/svg" xmlns:xlink="http://www.w3.org/1999/xlink">
    <defs>
        <path id="gup43o4gva" d="M0 0h1030v1000H0z"/>
    </defs>
    <g fill="none" fill-rule="evenodd">
        <mask id="e9n9dm90jb" fill="#fff">
            <use xlink:href="#gup43o4gva"/>
        </mask>
        <path d="M358.24 725.434c.72-.079 1.48.297 1.918.92 1.509 2.174 2.077 4.678 2.39 7.253 2.757 11.113 7.772 32.006 11.45 42.939 2.349 6.525 6.42 14.684 11.496 22.693 2.185 2.567 4.67 5.147 7.559 7.8 7.828 6.605 26.567 18.508 39.668 23.883 4.061 1.8 8.267 3.171 12.523 4.4a352.989 352.989 0 0 0 23.987 1.525 41.569 41.569 0 0 1-.621-3.799c-1.777-4.378-2.707-9.118-2.898-13.827-2.424-14.365-2.721-30.694-2.922-38.12-.036-.516-.074-.982-.11-1.486.07-.46.13-.926.173-1.405l-.003-.004a448.822 448.822 0 0 0 8.693 7.97c.175.825.351 1.624.56 2.346 1.13 4.49 1.412 10.96 1.34 16.726.46 3.732.852 7.472 1.196 11.219 1.41 3.982 2.722 7.588 3.432 10.003 1.046 2.573 2.165 5.128 3.447 7.595.452.639.85 1.308 1.144 2.036.187.28.377.6.507.885 7.782.182 15.56.373 23.329.232 1.35-.025 2.69-.036 4.029-.084 8.461-.701 16.872-1.982 25.304-3.063A453.573 453.573 0 0 0 562 849.015a385.639 385.639 0 0 1-31.712 1.439c-7.722.459-15.434.956-23.152 1.204-2.006 1.7-4.47 2.975-6.508 4.625-7.886 6.379-16.911 11.588-24.178 18.728-7.25 7.124-12.01 17.34-17.302 26.103-11.738 19.432-23.698 38.952-39.187 55.665-26.078 28.138-61.725 47.194-99.56 53.221 38.297-15.292 71.004-37.874 98.263-68.605 6.368-7.107 11.743-13.89 16.6-20.702 4.022-7.67 8.196-15.417 11.114-19.222 3.65-5.854 7.352-11.743 11.234-17.502.18-.33.353-.637.534-.969 6.51-11.353 13.818-22.7 23.467-31.532-12.245-.122-24.507-.126-36.674-1.652-14.038-1.59-28.089-3.112-42.075-5.03-2.232.827-4.645 1.38-6.733 2.245-32.151 12.7-51.433 47.909-76.547 70.065-10.259 9.05-22.228 15.95-34.871 21.057-15.66 3.884-31.251 8.349-47.326 10.172 10.405-3.367 20.556-7.45 30.6-11.767 10.67-4.142 21.066-8.68 30.29-15.592 24.488-16.716 42.775-42.539 65.057-66.222 4.6-5.033 9.603-9.814 15.111-13.834-6.77-1.246-13.518-2.642-20.227-4.272-25.538-6.71-49.256-11.108-74.734-1.677-14.17 5.245-28.097 11.975-39.115 22.43-11.135 10.133-21.066 21.72-33.611 30.187-20.764 12.716-45.793 17.012-69.77 18.646 23.316-6.224 46.812-14.329 66.707-28.29 8.843-6.623 19.478-19.276 29.192-29.108 11.656-11.94 24.354-23.413 40.134-29.48.27-.108.55-.188.822-.29a4721.591 4721.591 0 0 1-31.286-7.662c-9.84-3.058-19.322-5.676-28.746-8.16-3.567.15-7.923.389-11.982.612-6.898.866-12.956 2.456-19.338 5.748-16.28 8.149-30.508 19.907-46.655 28.314-16.084 8.156-34.332 10.139-52.085 11.236 15.519-4.371 31.273-8.803 45.31-16.958 16.837-10.13 31.012-24.177 47.864-34.31a189.034 189.034 0 0 1 5.335-2.778c-18.134-4.718-35.32-11.389-53.133-17.073-31.114-9.928-57.121 1.247-87.418 6.78-15.343 2.802-28.612.43-43.276-4.393 12.565 1.124 25.493 1.753 37.571-2.535 9.135-2.916 18.106-6.338 27.02-9.87 4.178-1.733 8.296-3.77 12.62-5.098-3.639-1.094-7.264-2.23-10.916-3.283-24.24-9.763-48.281-20.02-72.718-29.303-25.326-11.015-50.09-23.3-75.01-35.206 38.219 10.475 75.92 22.867 113.405 35.688 14.934 5.63 29.192 13.068 44.588 17.423-.342-.352-.694-.697-1.033-1.05-8.13-8.495-15.332-19.274-21.363-28.666-8.521-10.312-19.027-21.595-30.003-30.193 11.38 5.45 21.47 13.608 30.914 21.916 5.314 6.235 10.505 12.622 16.058 18.655 5.41 4.618 10.641 9.215 16.456 13.52 6.715 5.064 14.351 8.655 22.072 11.873 2.751.68 5.188 2.098 6.698 4.18 6.085 2.156 12.045 4.635 17.742 7.697 9.027 2.873 18.075 5.683 27.193 8.274 2.459.726 5.006 1.435 7.55 2.145-2.567-3.442-4.84-7.381-6.84-11.922-6.67-13.334-11.706-27.44-18.281-40.817-6.406-11.172-12.886-21.712-22.862-32.897-10.735-10.945-23.222-20.228-36.95-27.051 24.365 6.332 44.464 22.495 58.747 42.848.572.754 1.138 1.508 1.617 2.34a131.815 131.815 0 0 1 3.179 4.963c6.282 10.84 11.133 22.433 16.464 33.772a103.043 103.043 0 0 0 3.114 4.13c5.652 7.89 14.163 17.415 19.469 21.178 28.546 20.244 70.22 28.48 104.117 34.075-13.512-13.125-17.298-32.985-22.289-51.172-12.088-44.056-35.137-85.044-66.477-118.215 26.838 20.597 48.275 48.204 61.61 79.342 6.81 15.905 11.534 32.67 18.846 48.348 4.401 9.436 9.831 18.546 16.868 26.258 17.296 18.952 38.499 26.517 62.836 31.735 3.617.776 17.197 1.297 19.172 3.79-8.845-11.162-14.815-24.646-18.856-38.219-14.46-49.191-15.174-121.203-60.955-155.065 33.003 16.547 46.094 55.492 54.434 91.434M578.843 858A448.036 448.036 0 0 0 596 865.685c-1.72 1.593-3.503 3.292-5.46 5.154-7.665 7.302-15.328 14.775-21.262 23.59-15.098 21.316-26.74 44.901-44.051 64.65-.731.834-1.42 1.718-2.167 2.532-23.59 26.797-49.574 54.307-84.06 66.389 5.72-3.3 11.138-6.974 16.355-10.891 6.924-5.198 11.706-12.617 18.01-18.452 7.138-6.609 14.831-12.512 21.75-19.406a265.435 265.435 0 0 0 34.942-42.974c15.379-23.58 24.707-50.483 43.065-72.259 1.692-2.007 3.626-4.03 5.721-6.018m42.852 139.595c8.863-11.359 11.49-22.712 18.78-37.893 9.224-18.413 21.162-36.09 36.61-49.702A265.006 265.006 0 0 0 694 913.272c-.597.468-1.196.933-1.784 1.41-21.76 15.494-36.612 41.644-49.55 66.573-8.62 15.289-15.488 25.907-26.834 40.67-6.33 9.23-13.826 17.552-20.389 26.342-.314.225-.647.431-.962.655-4.942 5.272-10.604 9.846-16.481 14.078 5.326-6.43 10.122-13.358 14.606-20.52 3.816-6.096 8.132-11.81 11.313-17.871 6.127-8.714 11.291-17.244 17.776-27.014M778.41 914.86c.428-.62.86-1.24 1.295-1.859l-.01.001A256.648 256.648 0 0 0 803 908c-8.252 8.915-15.577 18.164-19.816 25.87-9.165 16.901-13.876 35.874-23.775 52.463-4.972 9.647-10.278 19.211-16.827 27.877-4.577 7.73-9.913 15.2-15.964 20.987-1.43.787-3.797 2.955-5.976 3.642-1.004.296-1.93.226-2.642-.561 3.76-5.111 7.052-10.634 10.333-16.184 5.357-9.06 11.548-17.448 14.513-27.249 2.927-5.073 5.664-10.247 7.872-15.71.799-1.643 1.66-3.251 2.505-4.87 3.082-6.8 6.129-13.619 9.196-20.417 2.88-7.4 7.857-28.033 15.99-38.989m100.415 26.25c.345-1.215.548-2.384.652-3.516 1.685-4.87 3.586-9.63 6.308-13.98.94-1.348 1.913-2.672 2.857-4.018.664-1.264 1.35-2.515 2.059-3.753l-.111.024A297.89 297.89 0 0 0 906 912c-.616.855-1.235 1.707-1.86 2.55-4.172 5.734-7.274 10.068-10.33 15.066-3.548 6.978-7.614 16.014-11.376 24.355-3.27 9.639-7.033 19.076-11.767 28.11-.345.863-.774 1.78-1.386 2.794-1.576 1.957-3.23 1.077-4.281-.488 2.258-14.885 9.743-28.902 13.824-43.279m120.86-254.827c-.968-16.944-2.419-33.888-4.422-50.728-1.59-13.52-4.975-29.116-17.204-35.064a7732.28 7732.28 0 0 1-6.045 27.698c-7.67-62.83-27.636-124.105-58.416-179.397-4.63 13.797-9.258 27.594-13.887 41.357-6.149-56.849-32.61-111.277-73.478-151.216-2.176 15.7-4.352 31.433-6.563 47.132-26.807-63.35-69.747-119.783-123.637-162.488 4.422 15.664 5.423 32.297 2.867 48.376-35.685-53.702-84.567-98.551-141.082-129.43a183.288 183.288 0 0 0 5.112 44.641c-42.732-39.87-92.443-72.236-146.195-95.162 9.638 14.04 15.234 30.81 15.994 47.789-29.501-25.07-66.188-41.53-104.499-46.856 2.59 7.297 5.217 14.593 7.808 21.89a5503.011 5503.011 0 0 0-128.336-15.7c-2.798-.311-9.362 0-11.02-1.729.45 1.764.898 3.527 1.382 5.257 8.878 32.677 24.112 63.66 44.632 90.563a93.597 93.597 0 0 1-30.157-15.215c7.53 35.686 22.247 69.85 43.008 99.83-10.26-3.285-19.794-8.817-27.774-16.044 4.974 44.538 23.421 87.485 52.301 121.754-13.092-6.017-26.185-12-39.278-18.017 12.61 46.13 36.998 88.973 70.23 123.31-12.678-4.945-25.32-9.924-37.999-14.869 13.787 33.038 32.831 63.861 56.056 91.11a687.026 687.026 0 0 0-67.456 11.695c1.175 9.406 7.289 18.085 15.787 22.304a177.884 177.884 0 0 0-11.4-4.565c-35.236-12.967-74.134-15.803-110.89-8.057a5204.099 5204.099 0 0 0 19 20.09c-49.02-7.434-100.112-.552-145.4 19.573 9.569 9.544 19.138 19.122 28.706 28.666-28.845-.519-57.794 3.458-85.464 11.688 6.08 5.29 12.16 10.581 18.274 15.872a720.333 720.333 0 0 0-68.503 5.221A719.983 719.983 0 0 0-104 691.226c25.045 33.957 54.236 64.87 86.674 91.877-13.127-1.694-26.22-3.354-39.347-5.014 35.27 33.23 74.376 62.416 116.314 86.69-10.433.277-20.866.554-31.333.83 25.874 24.794 57.138 43.916 90.992 55.57l-36.376 6.327c33.578 26.004 71.163 46.82 111.028 61.448-12.056.622-23.905 4.633-33.82 11.515 33.855 20.505 72.442 33.265 111.858 36.93l-23.422 11.62c41.074 11.48 84.394 14.972 126.78 10.2-10.846 6.985-21.659 13.97-32.472 20.92a816.926 816.926 0 0 0 183.4 12.138c-9.465 2.04-17.825 8.645-22.004 17.359 63.839 7.711 129.855-3.562 187.51-32.055-8.6 7.4-14.302 18.085-15.683 29.392 60.04-15.18 116.383-44.746 163.019-85.514l1.969 20.851c67.984-30.5 140.012-92.707 143.708-156.852a84.95 84.95 0 0 0 .047-9.94l.644-.538c1.001-.864 1.969-1.763 3.005-2.593.019-.018.039-.03.058-.048l-.076.02c-3.462-10.354-17.531-11.403-28.358-10.078a405.165 405.165 0 0 0-86.32 20.355 403.56 403.56 0 0 1 90.484-39.786c-14.621-19.156-39.077-29.608-63.16-29.559-31.3.064-59.972 16.046-89.085 27.553-41.162 16.27-88.08 23.825-129.485 8.183 41.504 9.11 84.129-6.028 123.555-21.884 39.426-15.856 80.698-33.022 122.893-28.02-18.475-24.242-36.951-48.482-55.427-72.723-4.87-6.391-9.876-12.91-16.596-17.312-8.912-5.837-19.974-7.368-30.624-7.379-25.746-.028-50.745 7.864-75.493 14.966-41.272 11.844-83.46 21.735-126.37 23.16-42.911 1.423-86.865-6.028-124.304-27.065 85.681 25.23 178.345 12.05 263.666-14.375 26.357-8.164 53.958-17.676 80.92-11.822-18.74-26.292-36.634-53.86-56.91-78.985-14.741-18.267-50.03-15.502-70.624-11.579-19.923 3.796-39 11.019-58.402 16.931-73.404 22.37-155.373 25.258-224.967-7.089 68.68 13.86 140.791 15.914 208.159-3.345 32.861-9.396 65.714-24.676 100.573-23.629 8.568-.346 17.17.312 25.426 2.456.933.138 1.83.38 2.763.622-10.363-13.313-21.418-26.108-33.543-37.968-20.368-21.627-40.192-48.952-71.76-52.155-15.302-1.553-30.687 1.06-45.845 3.663-36.896 6.336-73.884 15.539-111.337 17.699-29.834 1.72-59.481-4.6-88.697-10.884 27.745 5.95 62.023.752 89.907-2.335 28.426-3.147 56.74-8.157 84.757-13.86 23.699-4.823 49.5-14.955 73.919-11.702-20.658-21.854-41.73-43.224-63.701-63.765-7.842-7.538-15.58-15.249-23.283-22.96a23.39 23.39 0 0 1-1.658-.346c-15.347-3.84-33.829 2.11-48.653 5.39a2053.217 2053.217 0 0 1-53.953 11.18c-24.202 4.677-46.857 8.582-71.575 5.541-12.786-1.573-25.485-3.17-37.995-6.461-12.384-3.258-23.24-9.929-35.203-13.679 23.621 7.404 48.674 9.172 73.287 9.518 23.962.338 46.623 1.205 70.087-5.278 25.186-6.96 49.506-20.441 75.781-22.774 4.283-.38 8.533-.38 12.782-.104-6.392-6.328-12.817-12.656-19.345-18.811-20.486-19.537-42.319-37.588-63.633-56.192-5.216-4.495-10.743-8.887-16.444-13.278-5.872-2.351-11.883-4.011-18.136-4.495-36.583-2.881-71.742 15.186-108.68 8.402-13.368-2.455-27.082-4.564-39.519-10.304 11.573 2.559 23.526 2.213 35.34 2.49 13.473-.07 27.325 1.072 40.556-2.144 18.206-4.634 45.289-13.072 68.123-10.27-11.987-8.438-24.458-16.84-36.963-25.313-14.855-8.472-28.085-19.952-44.494-25.45-18.516-6.847-34.303-9.13-55.272-14.212-14.786-4.15-29.537-8.472-43.7-14.489 16.133 2.42 32.334 4.011 48.502 5.913 11.538 1.003 23.214 2.559 34.44 5.533-12.954-8.749-26.6-16.46-40.382-23.86-29.398-20.54-60.523-37.588-90.612-57.47 15.787 7.157 31.332 14.661 46.843 22.338a343.734 343.734 0 0 1 41.696 21.439c14.785 7.572 30.054 14.35 43.7 23.998 8.809 5.809 17.376 12.034 25.909 18.258-3.766-3.7-7.393-7.608-10.675-11.792-11.607-15.491-20.002-33.507-25.77-51.938 14.75 29.53 35.788 54.635 58.174 79.083 23.594 15.976 47.637 31.467 70.437 48.618-3.947-3.293-3.585-15.802-4.906-20.663-1.908-7.022-2.352-17.19-3.604-24.356-3.13-17.906-4.28-33.151-11.872-51.936 10.665 9.19 14.658 27.824 17.653 40.97 3.24 14.229 1.86 28.917 6.693 42.945 2.958 8.585 9.361 23.426 16.314 29.396 20.9 17.947 42.041 35.652 62.078 54.601 9.12 8.645 18.067 17.498 26.945 26.384-1.14-8.16-.38-16.771-.277-24.862.273-21.206 6.591-42.417 7.517-63.758.95-21.912-.709-44.99-10.66-64.911 12.264 24.55 15.718 49.067 15.234 75.347-.829 15.7-1.105 16.668-1.97 31.952-.724 11.584-2.21 18.257-1.277 28.078-.622 8.818 3.696 18.639 9.05 27.456 8.05 9.96 16.72 19.468 24.77 29.427 1.693 2.732 4.353 5.498 5.7 8.576 18.965 18.016 36.894 37.104 54.996 55.984 1.14 1.21 2.349 2.351 3.489 3.561-1.486-9.232-1.21-18.776.587-27.87 7.6-27.802 20.554-63.454 25.494-86.587 4.871-24.02 7.873-50.057-1.103-73.68 18.289 29.585 6.213 79.857 8.183 71.01-.367 21.678-6.779 41.518-12.227 62.25-1.14 6.155-3.074 13.279-4.698 19.78a45.89 45.89 0 0 0-.172 2.247c-1.202 20.325 2.34 41.605 13.714 58.782 11.675 17.631 28.146 32.479 42.421 47.446 6.564 6.881 12.748 14.074 18.62 21.508 1.544-37.1 28.452-71.853 39.9-106.677.153-.464.254-.95.402-1.417 6.166-16.239 10.52-32.8 9.263-50.445 4.856 1.613 3.41 17.77 3.255 21.812-.208 3.217-.622 6.397-1.072 9.614-.207 10.027-.794 20.816-3.627 33.75-3.45 15.75-8.649 30.639-15.378 45.308-6.299 13.733-14.24 26.575-16.319 41.873-.74 5.45-.747 10.969-.752 16.468-.003 3.61.002 7.283 1.045 10.74 3.065 10.16 13.22 20.682 19.074 29.46 15.544 23.306 32.228 45.68 48.888 68.194-4.143-59.457 40.435-116.846 30.064-174.663-.397-2.022-.822-4.04-1.284-6.048a94.64 94.64 0 0 1 1.284 6.048c4.962 25.298 4.835 51.59-.411 76.832-5.897 28.372-18.211 56-16.756 84.943 2.022 40.202 29.816 73.806 56.237 104.152-12.594-47.005 39.995-91.718 31.487-139.632 3.41-.482 5.228 3.891 5.598 7.32 5.081 47.057-33.409 92.246-23.214 138.465 5.893 26.715 26.838 47.1 46.769 65.822 3.2 3.007 6.518 6.2 8.279 10.158.296.665.547 1.351.747 2.062.855 3.036.32 6.605-1.378 9.166.351-.333.676-.699.957-1.116a6.084 6.084 0 0 0 .968-2.282c.172-.691.276-1.452.345-2.178.173-2.11.138-4.184-.207-6.26 0-.276-.07-.587-.104-.863-.415-2.318-1.692-4.565-1.934-6.882-.242-2.075.483-3.838.829-5.81.31-1.798.345-3.7.587-5.532.587-4.565 1.105-9.13 1.623-13.728 1.002-9.164 1.831-18.362 2.557-27.56a844.302 844.302 0 0 0 1.07-110.62" fill="#8A8A8A" opacity=".103" mask="url(#e9n9dm90jb)" transform="matrix(-1 0 0 1 897 0)"/>
    </g>
</svg>
