<svg width="1617" height="760" viewBox="0 0 1617 760" xmlns="http://www.w3.org/2000/svg" xmlns:xlink="http://www.w3.org/1999/xlink">
    <defs>
        <path id="nolnv355qa" d="M0 0h1617v760H0z"/>
    </defs>
    <g fill="none" fill-rule="evenodd">
        <mask id="9ry4yy9m4b" fill="#fff">
            <use xlink:href="#nolnv355qa"/>
        </mask>
        <path d="M1212.576 289.048c.691.305 1.402.54 2.12.752-8.188 4.663-16.422 9.5-24.68 14.5 1.716-2.7 3.4-5.415 5.036-8.132 7.321-12.075 13.9-24.161 19.735-34.943-1.588 7.67-2.193 14-2.444 18.652-.248 5.824.233 9.17.233 9.17m-250.04 288.96c2.722-.373 5.513-.763 8.347-1.276 5.772-.664 11.764-1.658 18.313-2.04.153-.013.314-.022.465-.035-16.228 3.913-29.93 9.575-40.762 15.7-9.598 5.403-17.048 11.022-22.812 16.185a498.466 498.466 0 0 1 12.19-26.642c4.838.646 10.41.147 16.502-.743a89.412 89.412 0 0 0 7.758-1.149m34.793 42.867c4.75-.35 9.483-.998 14.456-1.237 9.767-.834 19.922-1.096 30.139-1.274 10.198-.179 20.542.115 30.609.372 10.135.48 20.02.85 29.47 1.527 11.629.702 23.503 1.685 35.276 2.83-8.275 1.693-17.215 2.863-26.563 3.493-14.889 1.163-30.873 1.005-46.841.698-15.876-.278-34.017-.596-52.621 0-18.618.54-37.815 2.026-55.376 5.54-17.574 3.453-33.37 8.997-44.385 16.343-.44.291-.858.587-1.282.88a450.03 450.03 0 0 1 5.903-17.826c5.627.62 12.61-.172 20.634-1.515 12.947-2.227 28.836-5.594 46.767-8.09 1.102-.153 2.227-.311 3.37-.503 1.138-.116 2.285-.253 3.441-.38 2.308-.3 4.65-.555 7.003-.858m-95.065 87.882a107.335 107.335 0 0 0-4.978 5.476 77.784 77.784 0 0 0-.948-4.281 412.001 412.001 0 0 1 6.571-33.247c1.164.34 2.41.7 3.83 1.1 7.015 1.935 16.866 4.394 29.742 6.547-14.69 7.33-26.08 16.07-34.217 24.405m-6.881 7.737c.051-.373.108-.752.16-1.127.345-.077.684-.167 1.018-.27-.388.464-.808.939-1.178 1.397M1600.51 72.44c-1.41 2.069-3.69 4.451-6.542 7.43-1.428 1.443-2.864 3.146-4.768 4.82-1.897 1.643-3.94 3.418-6.212 5.374-9.223 7.581-22.437 16.818-41.707 25.925-19.175 9.06-34.522 16.908-46.952 24.643-12.403 7.653-21.863 15.203-29.232 21.89-3.651 3.444-6.759 6.571-9.376 9.485a118.959 118.959 0 0 0-3.568 4.2c-1.053 1.278-2.042 2.491-2.864 3.586-3.387 4.429-4.882 7.39-4.882 7.39.343.62.74 1.199 1.152 1.768-7.18 2.249-16.068 5.135-26.411 8.694 5.054-6.955 9.112-14.812 12.095-22.46 3.918-9.856 6.321-19.409 7.981-27.85 1.62-8.428 2.859-16.79 4.28-24.607 1.45-7.773 3.143-15.01 5.203-21.284 2.02-6.25 4.397-11.509 6.343-15.124.935-1.893 1.836-3.24 2.405-4.262l.655-1.142c-.043.034-.06.056-.117.099-.574.488-2.17 1.179-5.678 3.04-3.538 1.838-9.071 4.819-17.179 11.063-4.02 3.162-8.617 7.186-13.69 12.371-5.067 5.172-10.564 11.502-16.499 18.83-5.986 7.364-10.505 14.378-14.13 20.72a151.669 151.669 0 0 0-8.39 17.014c-2.093 5.079-3.597 9.453-4.771 13.516-.556 2.062-1.095 3.895-1.466 5.815-.508 1.723-.783 3.667-1.165 5.275-1.312 6.793-2.215 12.769-2.931 17.337-.337 2.245-.653 4.059-.804 5.35-.143 1.306-.17 2.058-.17 2.058.447.499.933.946 1.42 1.388a1267.93 1267.93 0 0 0-41.256 16.999c4.04-6.089 8.3-13.444 13.152-21.736 5.285-9.149 11.425-19.465 17.56-30.397 6.143-10.917 12.21-22.455 16.866-33.608 4.717-11.089 8.778-23.243 11.221-35.255 2.51-12 3.008-23.922 1.985-33.879-1.023-10-3.407-17.958-5.514-23.27-.956-2.685-2.033-4.688-2.627-6.067-.33-.691-.58-1.222-.75-1.579.016.072.03.104.046.194.099.53.225 1.371.372 2.74.1 1.384.395 3.24.303 5.867-.025 1.314-.054 2.804-.081 4.491-.102 1.674-.346 3.569-.579 5.65-.492 4.156-1.517 9.136-3.283 14.91-1.838 5.76-4.594 12.256-8.618 19.421-4.008 7.166-9.374 14.937-16.24 23.491-6.871 8.566-13.321 16.592-18.951 24.494-5.646 7.89-10.517 15.652-14.464 23.231-7.97 15.128-12.067 29.663-12.968 41.524-.973 11.896.98 20.785 2.916 26.3.237.668.474 1.282.711 1.86a1214.061 1214.061 0 0 0-56.667 27.4c.98-1.144 1.95-2.321 2.908-3.525 7.769-9.62 14.794-20.925 21.097-32.442 6.226-11.534 11.608-23.256 15.991-33.945 8.643-21.431 16.752-43.802 24.128-60.717 1.748-4.28 3.593-8.073 5.17-11.513.821-1.74 1.553-3.376 2.237-4.893.764-1.46 1.482-2.819 2.09-4.036 1.898-3.722 3.202-6.287 3.737-7.344-.63.668-2.347 2.163-6.843 5.526-2.143 1.565-4.774 3.668-8.128 6.391-1.72 1.375-3.615 2.89-5.702 4.569-2.037 1.757-4.268 3.663-6.725 5.792-9.828 8.512-22.822 20.727-39.484 38.184a237.052 237.052 0 0 0-15.969 18.57c-1.781.616-3.64 1.287-5.53 2.147-14.273 5.745-32.877 17.105-54.24 36.445-7.708 6.983-14.36 14.056-20.196 20.968 1.983-8.672 3.631-17.195 4.708-25.38.522-3.924 1.078-7.855 1.61-11.812.536-3.95 1.091-7.884 1.324-11.89.571-7.958 1.064-15.86 1.454-23.545.165-3.841.51-7.597.427-11.339-.032-3.72-.068-7.387-.108-10.977-.127-7.148-.298-13.9-.488-20.158-.036-3.108-.29-6.131-.592-8.99-.28-2.846-.53-5.585-.777-8.144-.503-5.09-.998-9.525-1.386-13.236-.621-5.408-1.057-9.128-1.242-10.697-.125 1.25-.646 4.245-2.322 11.384a577.648 577.648 0 0 1-3.252 13.14c-.689 2.72-1.493 5.757-2.344 9.1-.815 3.32-2.145 6.944-3.424 10.918-2.612 7.889-5.537 17.18-9.426 27.954-2.077 5.298-4.367 11.043-6.804 17.192-2.536 6.118-4.84 12.683-8.15 19.54-6.294 13.768-11.104 26.602-15.89 38.47a380.5 380.5 0 0 0-6.131 17.223c-1.784 5.563-3.665 10.874-5.162 16.012-6.008 20.512-9.402 37.912-10.77 52.076-1.46 14.146-1.197 25.011-.447 32.33.316 3.166.704 5.63 1.045 7.457-18.744 14.49-37.1 29.947-54.75 46.4a95.43 95.43 0 0 0 .562-6.137c.497-9.645.19-21.122-.083-34.245-.346-13.111-.545-28.016-1.152-43.567-.58-15.54-1.658-31.686-3.961-46.516-2.207-14.794-5.806-30.289-11.016-44.588-5.136-14.325-12.35-27.265-19.89-37.138-7.578-9.919-15.27-16.788-20.945-21.043-2.75-2.222-5.194-3.643-6.725-4.718-.79-.514-1.398-.91-1.807-1.178.063.063.095.088.172.173.442.497 1.124 1.304 2.166 2.654 1.011 1.402 2.527 3.173 4.132 6.014.827 1.409 1.762 2.999 2.83 4.808.978 1.831 1.949 4 3.062 6.348 2.173 4.724 4.318 10.652 6.2 17.913 1.792 7.29 3.09 15.95 3.484 26.146.415 10.185-.222 21.89-1.936 35.4-1.71 13.524-3.326 26.202-4.153 38.219-.853 12.016-.977 23.394-.225 33.974 1.386 21.18 6.483 39.224 13.231 52.359 6.694 13.217 14.53 21.359 20.16 25.934a48.018 48.018 0 0 0 2.572 1.938c-10.754 10.562-21.214 21.494-31.28 32.844a624.95 624.95 0 0 0-14.559 17.046c.479-3.435.84-6.985 1.082-10.612 1.018-14.478.244-30.067-1.231-45.087-1.432-15.015-3.557-29.565-5.406-42.302-1.888-12.8-3.657-25.632-4.253-37.725-.723-12.143-.23-23.602 1.55-33.477 1.73-9.813 4.448-18.189 7.084-23.83.289-.75.578-1.416.844-2.089.341-.607.626-1.197.897-1.748.55-1.075 1.014-2.048 1.42-2.784.386-.782.685-1.378.888-1.78-.054.063-.075.097-.145.174-.39.445-1.088 1.113-2.242 2.157-1.161 1.061-2.87 2.448-4.955 4.636-1.075 1.077-2.364 2.242-3.735 3.713-1.333 1.488-2.841 3.161-4.496 5.031a606.465 606.465 0 0 0-5.192 6.728c-1.687 2.646-3.853 5.444-5.689 8.793-8.02 13.132-16.156 33.356-21.738 61.627-2.785 14.124-3.86 27.213-4.081 39.024a251.032 251.032 0 0 0 1.393 31.887c2.04 19 5.522 33.606 8.828 45.15 3.333 11.545 6.666 20.09 9.144 26.02a249.44 249.44 0 0 0 1.655 3.828c-22.115 31.644-41.508 66.157-56.458 102.986.915-12.233.807-26.273-.153-41.248-2.748-42.92-11.418-92.997-16.206-133.147-2.552-20.108-4.56-40.553-4.758-59.93-.266-19.348 1.084-37.724 4.27-53.302 3.13-15.566 7.63-28.504 11.723-37.219 1.812-4.535 3.837-7.753 4.978-10.165.596-1.151 1.057-2.034 1.373-2.642l-.185.253c-.572.716-1.53 1.872-3.117 3.701-.804.908-1.766 2.008-2.915 3.311-1.148 1.278-2.295 2.916-3.788 4.74-5.763 7.315-14.708 19.124-24.184 40.322-9.609 21.064-18.818 52.018-23.608 94.958-2.376 21.413-2.62 41.331-1.818 59.5.808 18.176 2.644 34.64 4.907 49.497 4.619 29.757 10.809 53.038 16.425 71.258 5.628 18.146 10.878 31.284 14.604 39.972 1.943 4.352 3.386 7.597 4.51 9.76 1.082 2.148 1.732 3.216 1.732 3.216.493-.212.971-.472 1.446-.76a435.635 435.635 0 0 0-4.743 17.314 426.507 426.507 0 0 0-2.615-6.34c-6.529-15.4-15.395-34.567-29.164-57.408-6.924-11.386-15.099-23.714-25.23-36.548-10.166-12.81-22.156-26.282-37.142-38.958-14.97-12.678-29.096-22.308-41.936-29.403-12.834-7.112-24.313-11.694-34.105-15.05-4.919-1.501-9.375-3.01-13.541-3.906-4.085-1.046-7.787-1.976-11.19-2.523-6.705-1.396-12.053-1.94-16.18-2.522a54.778 54.778 0 0 0-5.348-.601c-1.54-.154-2.828-.25-3.896-.377a65.147 65.147 0 0 1-4.311-.527c-.061-.01-.102-.02-.156-.031.571.219 1.362.526 2.39.935 2.192.878 5.428 2.003 9.416 3.715 7.965 3.435 19.004 8.703 30.801 16.418 11.852 7.682 24.257 17.96 35.765 30.128 11.459 12.294 22.159 26.356 31.88 41 4.903 7.248 9.955 15.16 15.192 23.3a8646.592 8646.592 0 0 0 15.942 25.402c10.885 17.285 22.303 34.861 34.12 50.145 11.762 15.278 23.943 28.177 35.128 36.208a74.531 74.531 0 0 0 6.563 4.28c-6.743 43-6.79 88.103 1.98 134.642l23.692.894s-13.195-38.303-9.394-100.447c2.918-1.032 6.075-2.437 9.469-4.074 9.169-4.465 20.289-10.42 33.122-16.172.786-.354 1.593-.713 2.399-1.104.826-.337 1.65-.687 2.484-1.032 1.66-.723 3.344-1.42 5.036-2.157 3.466-1.292 6.856-2.8 10.512-4.058 7.107-2.742 14.623-5.135 22.2-7.484 7.57-2.346 15.34-4.37 22.905-6.362 7.66-1.838 15.11-3.708 22.308-5.253 28.651-6.483 59.879-11.361 83.894-14.848 12.041-1.732 22.194-3.193 29.349-4.196 5.327-.802 8.979-1.348 10.503-1.576-1.23-.025-4.214-.264-11.416-1.165-6.81-.89-17.37-2.272-33.775-4.41a1423.6 1423.6 0 0 0-8.085-1c28.238-10.385 48.439-21.997 61.69-32.609 3.813-2.775 6.897-5.86 9.874-8.338 1.152-1.138 2.224-2.201 3.274-3.247 15.346 1.836 29.934 3.794 42.865 5.603 15.515 2.184 28.59 4.029 37.804 5.363 6.875.924 11.585 1.563 13.552 1.83-1.51-.475-5.115-1.843-13.696-5.551-8.103-3.546-20.666-9.052-40.187-17.595-6.854-2.967-14.593-6.287-23.355-9.88.555-.813 1.054-1.556 1.484-2.163 1.095-1.577 1.804-2.532 2.287-3.08.068-.08.118-.134.176-.2-.46.312-1.138.768-2.025 1.358-.836.612-1.96 1.328-3.185 2.172-.406.269-.844.576-1.275.874a912.865 912.865 0 0 0-9.354-3.749c-13.87-5.512-29.973-11.578-49.085-17.768a326.928 326.928 0 0 0-25.532-7.064c9.932-.2 20.015-.781 29.807-1.94 15.795-1.788 30.865-5.528 43.114-10.363 12.25-4.856 21.673-10.578 27.709-15.142 1.567-1.023 2.877-2.15 3.993-3.087 1.127-.949 2.064-1.762 2.845-2.421.754-.63 1.326-1.113 1.721-1.445l-.192.099c-.614.327-1.65.8-3.349 1.502-1.712.637-4.002 1.707-7.371 2.581-1.669.452-3.577.987-5.757 1.594-2.172.484-4.665.933-7.382 1.443-2.726.55-5.842.707-9.173 1.11-3.388.284-7.118.38-11.12.422-8.074-.082-17.488-.913-28.394-2.88-10.894-1.944-23.242-5.151-37.553-9.446-14.318-4.289-27.956-8.022-41.176-10.436-13.218-2.47-25.961-3.697-38.005-3.45-12.043.25-23.315 1.88-33.267 4.816-2.5.678-4.923 1.622-7.22 2.428-1.124.397-2.272.838-3.383 1.258-1.108.49-2.181.991-3.272 1.472a236.867 236.867 0 0 0-6.113 2.936 292.373 292.373 0 0 0-5.472 3.309c-.086.054-.165.108-.248.162 11.381-18.97 24.577-38.418 39.836-58.219 1.016.465 2.08.888 3.211 1.251 2.092.666 4.38 1.2 6.82 1.563 2.412.32 5.154.838 7.947 1.048 2.817.3 5.77.37 8.896.474 3.148.187 6.432.262 9.844.246 3.34-.079 6.983.088 10.673.059 3.649-.059 7.452-.165 11.44-.127 7.843-.14 16.253-.232 24.94-.528 8.745-.19 17.774-.585 26.678-1.089 4.072-.031 8.16-.212 12.195-.29 4.083.098 8.157.001 12.172.1 7.97.288 15.74.7 23.114 1.444 14.75 1.436 30 4.327 44.843 8.155 14.797 3.825 29.11 8.407 41.594 12.366 12.48 3.993 23.168 7.38 30.692 9.627 5.619 1.63 9.476 2.75 11.07 3.211-1.16-.61-3.902-2.303-10.385-6.806-6.086-4.241-15.294-11.057-29.747-21.668-7.28-5.233-15.815-11.563-26.478-18.467-10.612-6.906-23.37-14.643-39.478-21.844-16.117-7.258-32.434-11.454-47.62-13.408-3.779-.429-7.505-.935-11.209-1.147-3.687-.17-7.298-.26-10.84-.341l-2.658-.027-2.418.063c-1.581.054-3.164.127-4.738.165-3.103.167-6.174.305-9.146.546-23.746 1.678-43.796 6.504-58.847 12.672-3.392 1.5-6.513 2.931-9.422 4.37a724.4 724.4 0 0 1 10.921-12.453c12.362-13.746 25.872-27.052 40.196-39.91 2.47 2.133 5.404 3.683 8.487 4.796 1.682.576 3.593 1.253 5.429 1.712 1.81.418 3.8.94 5.822 1.366 8.005 1.694 17.136 2.936 27.97 4.984 21.385 3.604 49.169 10.32 72.867 15.7 23.68 5.235 49.247 11.413 68.86 16.404a11334.38 11334.38 0 0 1 32.699 8.496c-.854-.486-2.878-1.89-7.697-5.747-4.494-3.58-11.481-9.17-22.377-17.848-11.028-8.597-25.975-20.293-47.982-34.827-22.096-14.45-43.814-22.735-63.5-25.851-9.86-1.581-19.163-1.872-27.616-1.229-7.1.678-13.552 1.965-19.307 3.783a785.77 785.77 0 0 1 15.549-11.935c4.993.524 10.87-.825 17.181-4.076 9.57-4.856 19.77-13.803 29.198-24.837a190.416 190.416 0 0 0 6.172-7.6c1.108-.718 2.215-1.445 3.324-2.158 2.881 4.936 7.827 8.805 14.148 11.684 3.891 1.775 8.34 3.186 13.173 4.307 4.84 1.327 10.083 2.292 15.546 3.03 2.76.373 5.564.664 8.4.892 2.862.222 5.787.59 8.734.79 5.858.468 11.899.649 17.906.68 12.064.531 24.143-.063 35.173-.523 22.018-1.43 45.753-3.56 64.08-5.61 15.984-1.64 27.75-3.2 30.493-3.573-.892-.142-3.01-.711-8.04-2.502-4.762-1.658-12.072-4.573-23.58-8.913-5.748-2.196-12.539-4.804-20.565-7.882-8.13-2.854-17.418-6.486-28.416-10.196-11-3.681-21.4-6.506-31.266-7.965a204.784 204.784 0 0 0-14.212-1.861c-4.58-.382-8.974-.395-13.18-.398a124.022 124.022 0 0 0-27.266 2.866c29.284-17.127 58.409-32.574 85.85-46.184 4.008 5.668 11.156 8.859 19.963 11.587 9.25 2.77 20.472 5.194 33.287 8.04 12.819 2.775 27.346 6.115 42.594 9.213 15.237 3.121 31.18 5.906 46.13 7.182 14.899 1.366 30.804 1.545 45.93-.127 15.13-1.592 29.415-5.532 40.794-10.517 11.434-5.008 19.932-10.85 25.41-15.354 2.814-2.147 4.772-4.184 6.177-5.415.678-.635 1.204-1.13 1.563-1.461-.066.036-.12.07-.199.113-.583.309-1.529.781-3.09 1.474-1.6.648-3.683 1.7-6.824 2.588-1.563.468-3.329.996-5.336 1.608-2.017.515-4.352.944-6.897 1.468-5.106.99-11.373 1.669-18.873 1.773-7.502.013-16.228-.777-26.226-2.814-9.99-2.014-21.214-5.406-33.93-10.273-12.735-4.871-24.666-9.446-36.145-13.1-11.47-3.68-22.495-6.495-32.953-8.275-14.959-2.633-28.775-3.006-40.704-1.761 7.523-3.415 14.792-6.651 21.766-9.7 3.658 1.45 7.913 1.791 12.624.764 8.033-1.683 16.87-7.554 24.058-15.73.239-.27.463-.562.7-.84a1452.903 1452.903 0 0 1 31.076-12.287c3.71 4.345 9.542 7.005 16.933 7.88 8.893.982 19.993-.486 31.494-4.325 11.628-3.659 23.595-9.689 34.803-16.888a323.638 323.638 0 0 0 8.232-5.65c2.698-1.9 5.22-4.036 7.757-6.077 5.081-4.02 9.638-8.505 13.87-12.742 16.91-17.13 30.512-39.096 37.594-56.848.874-2.225 1.793-4.286 2.487-6.355.639-2.102 1.253-4.094 1.827-5.973.54-1.854 1.063-3.577 1.53-5.18.446-1.631.658-3.194.958-4.563a302.738 302.738 0 0 0 1.41-8.046c-.03.068-.039.102-.084.183-.474.899-1.719 2.848-4.783 6.917M255.5 541.905c-.432.19-.876.337-1.325.47a670.365 670.365 0 0 1 15.426 9.063 246.143 246.143 0 0 1-3.148-5.083c-4.576-7.547-8.687-15.1-12.334-21.84a77.81 77.81 0 0 1 1.527 11.658c.155 3.64-.146 5.732-.146 5.732m156.275 180.6c-1.7-.234-3.445-.478-5.217-.798-3.607-.415-7.352-1.036-11.445-1.275l-.29-.022c10.142 2.446 18.705 5.984 25.476 9.812 5.998 3.378 10.655 6.89 14.257 10.116a311.542 311.542 0 0 0-7.62-16.65c-3.023.403-6.505.09-10.313-.465-1.589-.165-3.208-.401-4.848-.719m-21.746 26.792c-2.968-.218-5.927-.624-9.035-.773-6.104-.521-12.451-.685-18.837-.796-6.374-.112-12.838.072-19.13.233-6.335.299-12.513.53-18.42.954-7.267.439-14.689 1.053-22.046 1.768 5.171 1.059 10.759 1.79 16.6 2.184 9.307.727 19.297.628 29.277.436 9.922-.174 21.26-.373 32.888 0 11.636.337 23.635 1.266 34.61 3.462 10.984 2.158 20.857 5.623 27.74 10.215.276.182.537.367.802.55a281.268 281.268 0 0 0-3.69-11.142c-3.517.389-7.88-.107-12.896-.947-8.092-1.391-18.022-3.496-29.23-5.055a75.654 75.654 0 0 1-2.105-.315c-.711-.072-1.429-.158-2.151-.237-1.443-.188-2.906-.348-4.377-.537m59.416 54.927a67.085 67.085 0 0 1 3.11 3.422c.085-.456.266-1.348.594-2.676a257.5 257.5 0 0 0-4.108-20.78c-.727.214-1.506.438-2.394.688-4.383 1.21-10.54 2.747-18.588 4.092 9.181 4.582 16.3 10.044 21.386 15.254m4.3 4.835c-.032-.233-.067-.47-.1-.704a7.958 7.958 0 0 1-.636-.17c.243.291.505.588.737.874M13.042 406.525c.88 1.293 2.306 2.782 4.089 4.644.892.902 1.79 1.966 2.98 3.012 1.185 1.027 2.462 2.137 3.882 3.359 5.764 4.738 14.023 10.511 26.067 16.203 11.984 5.663 21.576 10.568 29.345 15.402 7.751 4.783 13.664 9.502 18.27 13.681 2.282 2.153 4.224 4.107 5.86 5.928a74.35 74.35 0 0 1 2.23 2.625 66.475 66.475 0 0 1 1.79 2.242c2.117 2.768 3.051 4.618 3.051 4.618-.214.388-.463.75-.72 1.105a626.776 626.776 0 0 1 16.507 5.434c-3.159-4.347-5.695-9.257-7.56-14.038-2.448-6.16-3.95-12.13-4.988-17.406-1.012-5.267-1.787-10.494-2.674-15.379-.906-4.858-1.965-9.382-3.252-13.303-1.264-3.905-2.748-7.192-3.965-9.452-.584-1.183-1.148-2.026-1.503-2.664l-.41-.714c.027.021.039.036.074.062.358.305 1.356.737 3.548 1.9 2.212 1.15 5.67 3.012 10.737 6.915 2.512 1.976 5.386 4.491 8.556 7.732 3.167 3.232 6.603 7.188 10.312 11.768 3.742 4.603 6.566 8.987 8.832 12.95a94.793 94.793 0 0 1 5.243 10.634c1.308 3.174 2.248 5.908 2.982 8.448.348 1.288.685 2.434.916 3.634.318 1.077.49 2.292.729 3.297.82 4.246 1.384 7.98 1.832 10.836.21 1.403.408 2.536.502 3.343.09.816.106 1.286.106 1.286-.28.312-.583.592-.888.868a792.455 792.455 0 0 1 25.786 10.624c-2.525-3.805-5.187-8.402-8.22-13.585-3.303-5.718-7.14-12.165-10.976-18.998-3.839-6.823-7.63-14.034-10.54-21.005-2.949-6.93-5.487-14.526-7.014-22.034-1.568-7.5-1.88-14.951-1.24-21.174.639-6.25 2.13-11.224 3.446-14.544.597-1.678 1.27-2.93 1.642-3.792.206-.432.363-.764.468-.987-.01.045-.018.065-.028.121-.062.332-.14.857-.233 1.712-.062.866-.247 2.026-.189 3.667.016.822.034 1.753.051 2.808.064 1.046.216 2.23.361 3.531.308 2.597.949 5.71 2.053 9.318 1.148 3.601 2.87 7.66 5.386 12.139 2.505 4.478 5.859 9.335 10.15 14.682 4.294 5.353 8.325 10.37 11.844 15.308 3.529 4.932 6.573 9.783 9.04 14.52 4.981 9.455 7.542 18.539 8.105 25.952.608 7.435-.613 12.99-1.822 16.437a25.61 25.61 0 0 1-.445 1.163 758.79 758.79 0 0 1 35.417 17.125 79.43 79.43 0 0 1-1.818-2.203c-4.855-6.013-9.246-13.078-13.185-20.277-3.892-7.208-7.255-14.535-9.995-21.215-5.401-13.394-10.47-27.376-15.08-37.948-1.092-2.675-2.245-5.046-3.23-7.195-.514-1.089-.971-2.11-1.399-3.059-.477-.912-.926-1.761-1.306-2.522-1.187-2.326-2.001-3.93-2.336-4.59.394.418 1.467 1.352 4.277 3.454 1.34.978 2.984 2.292 5.08 3.994 1.075.86 2.26 1.807 3.564 2.855 1.273 1.098 2.667 2.29 4.203 3.62 6.143 5.32 14.264 12.955 24.678 23.865a148.157 148.157 0 0 1 9.98 11.607c1.114.385 2.275.804 3.457 1.342 8.92 3.59 20.547 10.69 33.9 22.778a135.832 135.832 0 0 1 12.622 13.105c-1.24-5.42-2.27-10.747-2.943-15.863-.326-2.452-.673-4.91-1.006-7.382-.335-2.469-.682-4.927-.827-7.431a709.149 709.149 0 0 1-.91-14.716c-.102-2.4-.318-4.748-.266-7.087.02-2.325.042-4.617.068-6.86.079-4.468.186-8.688.305-12.6.022-1.942.18-3.831.37-5.618.175-1.779.331-3.49.485-5.09.315-3.181.624-5.953.867-8.272.388-3.38.66-5.706.776-6.686.078.781.404 2.653 1.45 7.115a361.038 361.038 0 0 0 2.033 8.213c.43 1.7.933 3.598 1.465 5.686.51 2.075 1.341 4.34 2.14 6.825 1.633 4.93 3.461 10.737 5.892 17.47 1.298 3.312 2.73 6.903 4.252 10.746 1.585 3.823 3.025 7.927 5.094 12.212 3.934 8.605 6.94 16.626 9.931 24.044a237.805 237.805 0 0 1 3.832 10.765c1.115 3.476 2.29 6.796 3.227 10.007 3.754 12.82 5.875 23.695 6.73 32.548.913 8.84.749 15.631.28 20.206a55.151 55.151 0 0 1-.653 4.66c11.715 9.056 23.187 18.717 34.219 29a59.638 59.638 0 0 1-.352-3.835c-.31-6.028-.118-13.201.053-21.403.215-8.195.34-17.51.72-27.23.362-9.712 1.035-19.804 2.475-29.073 1.379-9.246 3.629-18.93 6.885-27.867 3.21-8.953 7.72-17.04 12.43-23.211 4.737-6.2 9.545-10.493 13.092-13.152 1.719-1.389 3.246-2.277 4.203-2.948l1.13-.737c-.04.04-.06.055-.108.108-.277.31-.703.815-1.354 1.659-.632.876-1.58 1.983-2.583 3.759-.516.88-1.1 1.874-1.768 3.004-.611 1.145-1.218 2.5-1.914 3.968-1.358 2.953-2.699 6.658-3.875 11.196-1.12 4.556-1.932 9.969-2.177 16.341-.26 6.366.138 13.681 1.21 22.125 1.068 8.453 2.078 16.377 2.595 23.887.533 7.51.611 14.62.141 21.234-.867 13.237-4.052 24.515-8.27 32.724-4.183 8.26-9.08 13.35-12.6 16.209-.573.464-1.102.854-1.607 1.21 6.721 6.602 13.259 13.435 19.55 20.529a390.595 390.595 0 0 1 9.1 10.653 92.842 92.842 0 0 1-.677-6.632c-.636-9.049-.152-18.792.77-28.18.894-9.384 2.222-18.478 3.378-26.439 1.18-8 2.286-16.02 2.658-23.578.452-7.589.144-14.75-.968-20.923-1.081-6.133-2.78-11.368-4.428-14.893-.18-.469-.361-.885-.528-1.306-.213-.38-.39-.748-.56-1.092-.344-.672-.634-1.28-.888-1.74-.241-.49-.428-.862-.555-1.113.034.04.047.06.09.109.245.278.681.696 1.402 1.348.726.663 1.794 1.53 3.097 2.897.672.674 1.478 1.402 2.335 2.32.832.93 1.775 1.977 2.81 3.145.97 1.235 2.05 2.637 3.245 4.205 1.054 1.654 2.408 3.403 3.555 5.496 5.012 8.208 10.098 20.847 13.587 38.517 1.74 8.827 2.412 17.008 2.55 24.39.148 7.387-.238 14.01-.87 19.93-1.275 11.874-3.452 21.003-5.518 28.218-2.083 7.216-4.167 12.556-5.715 16.263-.385.907-.727 1.7-1.035 2.392 13.823 19.777 25.943 41.348 35.286 64.366-.571-7.646-.503-16.42.096-25.78 1.718-26.824 7.137-58.123 10.129-83.217 1.595-12.567 2.85-25.345 2.974-37.455.166-12.094-.678-23.578-2.67-33.315-1.955-9.729-4.767-17.815-7.326-23.262-1.132-2.834-2.398-4.845-3.11-6.352-.373-.72-.661-1.272-.859-1.652.038.052.07.098.116.158.357.448.955 1.17 1.948 2.314.502.567 1.103 1.254 1.822 2.069.717.799 1.434 1.822 2.367 2.962 3.602 4.572 9.192 11.953 15.115 25.202 6.005 13.164 11.761 32.51 14.755 59.348 1.485 13.383 1.637 25.832 1.136 37.187-.505 11.36-1.653 21.65-3.067 30.936-2.886 18.599-6.755 33.15-10.265 44.537-3.518 11.34-6.8 19.552-9.128 24.982-1.214 2.72-2.116 4.748-2.819 6.1-.676 1.343-1.082 2.01-1.082 2.01a7.288 7.288 0 0 1-.904-.475 272.272 272.272 0 0 1 2.964 10.821 266.57 266.57 0 0 1 1.635-3.962c4.08-9.626 9.622-21.605 18.227-35.88 4.328-7.116 9.437-14.821 15.769-22.843 6.354-8.005 13.847-16.426 23.214-24.348 9.356-7.924 18.185-13.943 26.21-18.377 8.021-4.445 15.196-7.309 21.316-9.406 3.074-.939 5.859-1.882 8.463-2.442 2.553-.654 4.866-1.235 6.994-1.577 4.19-.872 7.532-1.212 10.112-1.576a34.236 34.236 0 0 1 3.343-.376c.962-.096 1.767-.156 2.435-.235a40.717 40.717 0 0 0 2.694-.33c.038-.006.063-.012.097-.019-.357.137-.85.329-1.493.584-1.37.55-3.393 1.252-5.886 2.322-4.978 2.147-11.877 5.44-19.25 10.261-7.408 4.802-15.16 11.226-22.353 18.83-7.162 7.684-13.85 16.473-19.926 25.625-3.064 4.53-6.221 9.475-9.494 14.563-3.252 5.204-6.6 10.535-9.964 15.876-6.803 10.803-13.94 21.789-21.325 31.341-7.351 9.549-14.964 17.61-21.955 22.63a46.582 46.582 0 0 1-4.102 2.675c4.215 26.875 4.244 55.064-1.238 84.151l-14.807.559s8.247-23.94 5.872-62.78c-1.824-.644-3.797-1.522-5.919-2.546-5.73-2.79-12.68-6.512-20.701-10.107-.491-.222-.995-.446-1.5-.69-.516-.21-1.03-.43-1.552-.645-1.037-.452-2.09-.888-3.147-1.348-2.167-.808-4.285-1.75-6.57-2.537-4.442-1.713-9.14-3.21-13.875-4.677-4.731-1.467-9.588-2.731-14.316-3.976-4.788-1.149-9.444-2.318-13.942-3.283-17.907-4.052-37.425-7.101-52.434-9.28-7.526-1.083-13.872-1.996-18.343-2.623l-6.565-.985c.77-.015 2.634-.165 7.135-.728 4.257-.556 10.857-1.42 21.11-2.757 1.59-.2 3.28-.41 5.053-.624-17.65-6.49-30.274-13.749-38.557-20.38-2.382-1.736-4.31-3.664-6.17-5.212-.72-.711-1.39-1.376-2.047-2.03a1358.9 1358.9 0 0 0-26.79 3.502 6742.494 6742.494 0 0 0-23.628 3.352c-4.297.578-7.24.977-8.47 1.144.944-.297 3.197-1.152 8.56-3.47 5.064-2.216 12.916-5.657 25.117-10.996 4.283-1.855 9.12-3.93 14.597-6.175-.347-.508-.66-.973-.928-1.352-.684-.986-1.127-1.583-1.43-1.926-.042-.049-.073-.083-.11-.124.289.195.712.48 1.267.848.522.383 1.225.83 1.99 1.358.254.168.528.36.797.547a570.522 570.522 0 0 1 5.846-2.343c8.67-3.446 18.733-7.237 30.678-11.106a204.33 204.33 0 0 1 15.958-4.415c-6.208-.125-12.51-.488-18.63-1.212-9.871-1.118-19.29-3.455-26.946-6.477-7.657-3.035-13.545-6.611-17.318-9.464-.98-.64-1.798-1.344-2.495-1.93-.705-.592-1.29-1.1-1.779-1.512-.471-.394-.828-.696-1.075-.904l.12.062c.384.205 1.031.5 2.093.939 1.07.398 2.5 1.067 4.607 1.613 1.043.283 2.236.617 3.598.997 1.357.302 2.916.583 4.614.902 1.703.343 3.651.441 5.733.693 2.117.177 4.449.238 6.95.264 5.046-.051 10.93-.57 17.746-1.8 6.809-1.215 14.526-3.22 23.47-5.904 8.95-2.68 17.473-5.013 25.735-6.522 8.262-1.544 16.226-2.31 23.754-2.157 7.527.157 14.571 1.176 20.792 3.01 1.562.424 3.076 1.014 4.512 1.518.703.248 1.42.524 2.114.786.693.306 1.364.62 2.045.92 1.334.614 2.61 1.235 3.821 1.835 1.187.699 2.329 1.393 3.42 2.068.054.034.103.068.155.102-7.113-11.857-15.36-24.012-24.897-36.387-.636.29-1.3.554-2.008.782-1.307.416-2.736.75-4.262.976-1.508.2-3.221.524-4.967.655-1.76.188-3.606.232-5.56.297-1.967.117-4.02.163-6.152.153-2.088-.049-4.364.056-6.67.037-2.281-.037-4.658-.103-7.15-.079-4.903-.087-10.159-.145-15.589-.33-5.465-.119-11.108-.366-16.673-.68-2.545-.02-5.1-.133-7.622-.183-2.552.063-5.098.002-7.608.064-4.98.18-9.837.438-14.446.902-9.218.898-18.75 2.704-28.027 5.097-9.247 2.39-18.193 5.254-25.996 7.729-7.8 2.495-14.48 4.612-19.183 6.017l-6.918 2.007c.725-.381 2.439-1.44 6.49-4.254 3.805-2.651 9.56-6.91 18.592-13.543 4.55-3.27 9.885-7.227 16.55-11.542 6.632-4.316 14.605-9.151 24.673-13.652 10.073-4.537 20.271-7.16 29.763-8.38 2.361-.268 4.69-.584 7.005-.717a293.74 293.74 0 0 1 6.775-.213l1.661-.017 1.512.04c.988.033 1.977.078 2.96.102 1.94.105 3.86.19 5.717.342 14.842 1.049 27.372 4.065 36.78 7.92 2.12.937 4.07 1.832 5.888 2.73a452.731 452.731 0 0 0-6.826-7.782c-7.726-8.591-16.17-16.908-25.122-24.944-1.544 1.333-3.377 2.302-5.304 2.997-1.052.36-2.246.784-3.393 1.07-1.132.261-2.376.588-3.639.854-5.003 1.059-10.71 1.835-17.482 3.115-13.365 2.253-30.73 6.45-45.541 9.813-14.8 3.271-30.78 7.133-43.038 10.252a7084.546 7084.546 0 0 0-20.436 5.31c.533-.303 1.798-1.181 4.81-3.592 2.809-2.237 7.176-5.73 13.986-11.155 6.892-5.373 16.234-12.683 29.989-21.767 13.81-9.03 27.383-14.209 39.687-16.157 6.162-.988 11.977-1.17 17.26-.767 4.438.423 8.47 1.228 12.066 2.364a491.098 491.098 0 0 0-9.717-7.46c-3.121.328-6.794-.515-10.739-2.547-5.981-3.035-12.355-8.627-18.248-15.523a119.002 119.002 0 0 1-3.858-4.75c-.693-.449-1.384-.903-2.077-1.35-1.801 3.086-4.892 5.504-8.843 7.304-2.432 1.109-5.212 1.991-8.233 2.691-3.025.83-6.302 1.433-9.716 1.894a97.945 97.945 0 0 1-5.25.558c-1.789.138-3.617.368-5.459.494-3.661.292-7.437.405-11.191.425-7.54.331-15.09-.04-21.983-.328-13.762-.893-28.596-2.224-40.05-3.506-9.99-1.024-17.344-2-19.059-2.233.558-.089 1.882-.444 5.025-1.563 2.977-1.036 7.546-2.859 14.738-5.571 3.593-1.372 7.837-3.003 12.853-4.926 5.081-1.784 10.886-4.054 17.76-6.373 6.875-2.3 13.375-4.066 19.542-4.978a127.99 127.99 0 0 1 8.882-1.163c2.862-.239 5.609-.247 8.237-.249 6.42-.035 12.1.713 17.042 1.792-18.303-10.705-36.506-20.36-53.656-28.866-2.506 3.543-6.973 5.537-12.477 7.242-5.782 1.732-12.795 3.247-20.805 5.025-8.011 1.735-17.091 3.822-26.621 5.759-9.523 1.95-19.488 3.69-28.832 4.488-9.311.854-19.252.965-28.706-.079-9.456-.995-18.384-3.458-25.496-6.573-7.146-3.13-12.457-6.782-15.881-9.596-1.759-1.343-2.983-2.616-3.86-3.385-.424-.397-.753-.706-.977-.913.04.022.074.043.124.07.364.194.955.489 1.93.922 1.001.405 2.303 1.063 4.266 1.617.977.293 2.08.623 3.335 1.005 1.26.322 2.72.59 4.31.918 3.192.618 7.109 1.043 11.796 1.108 4.689.008 10.143-.486 16.391-1.759 6.244-1.259 13.26-3.379 21.207-6.42 7.96-3.045 15.416-5.905 22.59-8.188 7.169-2.3 14.06-4.06 20.596-5.172 9.35-1.646 17.985-1.878 25.44-1.1a1067.26 1067.26 0 0 0-13.604-6.063c-2.286.906-4.945 1.12-7.89.477-5.02-1.051-10.543-4.721-15.036-9.83-.15-.17-.289-.352-.437-.526a908.063 908.063 0 0 0-19.423-7.68c-2.319 2.716-5.963 4.38-10.583 4.925-5.558.614-12.496-.303-19.684-2.703-7.267-2.286-14.747-6.055-21.752-10.554a202.283 202.283 0 0 1-5.144-3.532c-1.687-1.187-3.264-2.522-4.849-3.798-3.175-2.512-6.024-5.315-8.669-7.963-10.569-10.706-19.07-24.435-23.496-35.53-.546-1.39-1.12-2.68-1.554-3.972-.4-1.314-.783-2.56-1.142-3.734-.337-1.158-.665-2.235-.957-3.237-.278-1.02-.41-1.996-.598-2.851a189.202 189.202 0 0 1-.881-5.03c.018.043.024.064.052.115.297.562 1.074 1.78 2.99 4.323" fill="#208D14" opacity=".502" mask="url(#9ry4yy9m4b)"/>
    </g>
</svg>
