<svg width="1920" height="1080" viewBox="0 0 1920 1080" xmlns="http://www.w3.org/2000/svg" xmlns:xlink="http://www.w3.org/1999/xlink">
    <defs>
        <path id="v51c4zcyoa" d="M0 0h1920v1080H0z"/>
    </defs>
    <g fill="none" fill-rule="evenodd" opacity=".3">
        <mask id="dor9j5xsjb" fill="#fff">
            <use xlink:href="#v51c4zcyoa"/>
        </mask>
        <path d="M2073.558 291.398c-72.535-157.556-211.98-285.962-376.7-341.157-186.472-57.528-399.433 24.902-502.377 192.54-51.18 79.513-70.505 176.016-68.824 269.439l-1.797 74.588-14.563 596.78h256.719l-3.78-155.852c-1.798-73.492 26.605-144.627 78.602-196.6l162.457-162.458c65.323-65.323 65.323-171.231.023-236.532l-63.246-63.27-189.296 189.273c-.7-28.963-1.61-66.537-2.007-83.224-7.211-115.547 77.67-221.735 192.026-245.073 63.737-14.657 130.74 1.703 186.985 34.377 83.97 45.952 155.036 113.633 199.168 198.607 172.562 325.147-32.37 771.815-389.513 860.804-388.464 103.06-778.42-202.109-781.361-603.221-2.194-97.087 18.157-195.153 59.536-284.305 41.215-89.245 103.2-169.482 180.147-232.611-351.893 254.946-362.558 785.865-29.78 1063.308 242.04 212.237 633.677 222.716 883.115 15.45 260.22-204.138 364.775-586.79 224.466-890.863" fill="#FFDD4E" mask="url(#dor9j5xsjb)"/>
    </g>
</svg>
