<svg width="200" height="30" viewBox="0 0 200 30" xmlns="http://www.w3.org/2000/svg">
    <path d="m64.267 9.525-2.645 13.473c-.055.353-.096.584-.122.692a1.51 1.51 0 0 0-.041.366c0 .191.026.36.082.51.054.149.202.224.447.224.136 0 .305-.021.508-.061.204-.041.393-.089.57-.144.176-.053.339-.108.489-.162.148-.054.237-.08.264-.08v4.395a7.66 7.66 0 0 1-1.384.53c-.406.135-.875.25-1.403.345a9.302 9.302 0 0 1-1.648.142c-1.438 0-2.55-.36-3.337-1.079-.787-.718-1.18-1.674-1.18-2.869a5.394 5.394 0 0 1 .163-1.262l3.01-15.02h6.227zm-7.568-7.286L55.6 7.164H45.428l-1.18 5.943h8.382l-1.057 4.925h-8.261l-2.238 11.439h-6.591l5.29-27.232h16.926zM62.354 0c1.166 0 2.02.292 2.564.875.542.584.813 1.378.813 2.382 0 .976-.345 1.826-1.037 2.543-.692.72-1.621 1.079-2.787 1.079-1.167 0-2.021-.299-2.563-.895-.544-.597-.815-1.37-.815-2.32 0-.977.34-1.832 1.017-2.565C60.224.366 61.16 0 62.354 0zm19.49 9.037c-1.628 0-3.026.414-4.192 1.24-1.166.829-2.17 2.138-3.01 3.93l-.53 1.139c.083-.515.136-.936.164-1.262.026-.326.053-.59.08-.793.027-.205.041-.373.041-.51v-.447c0-.651-.095-1.268-.284-1.852a4.306 4.306 0 0 0-.855-1.526L68.13 10.95c.163.271.414.787.753 1.546.34.76.508 1.778.508 3.054 0 .487-.034 1.024-.1 1.608-.069.583-.17 1.214-.306 1.893L66.91 29.47h6.306l1.262-6.595c.19-.922.46-1.893.814-2.91a17.628 17.628 0 0 1 1.241-2.808c.474-.856.976-1.553 1.505-2.097.53-.543 1.051-.814 1.566-.814.38 0 .638.116.774.346.135.231.203.536.203.916 0 .84-.115 1.696-.346 2.564a90.01 90.01 0 0 1-.752 2.666c-.272.91-.523 1.832-.753 2.769a11.903 11.903 0 0 0-.346 2.869c0 .352.013.753.04 1.2.027.448.109 1.08.244 1.894h6.348c-.217-.895-.36-1.73-.427-2.504a22.533 22.533 0 0 1-.101-1.893c0-.758.127-1.547.385-2.36.258-.815.536-1.67.834-2.565.299-.896.577-1.845.835-2.849.257-1.004.387-2.076.387-3.216 0-1.628-.401-2.876-1.2-3.744-.802-.869-2.096-1.303-3.886-1.303M99.42.875C98.877.292 98.023 0 96.856 0c-1.193 0-2.129.367-2.807 1.1-.678.732-1.017 1.587-1.017 2.564 0 .95.27 1.723.814 2.32.542.596 1.396.895 2.563.895 1.166 0 2.096-.36 2.787-1.08.692-.717 1.038-1.565 1.038-2.542 0-1.004-.271-1.798-.814-2.382m-3.295 22.123L98.77 9.525h-6.226l-3.011 15.02a5.394 5.394 0 0 0-.163 1.262c0 1.195.393 2.151 1.18 2.87.786.719 1.898 1.078 3.336 1.078.57 0 1.12-.047 1.649-.142.528-.096.996-.21 1.403-.346a7.66 7.66 0 0 0 1.383-.53v-4.395c-.027 0-.116.027-.264.081-.15.054-.312.109-.488.162a5.952 5.952 0 0 1-.57.144c-.203.04-.373.06-.508.06-.245 0-.394-.074-.448-.223a1.461 1.461 0 0 1-.081-.51c0-.134.013-.257.04-.366.027-.108.068-.339.123-.692m14.484-9.565c.325 0 .583.055.773.163.19.108.34.258.447.447.109.19.19.401.244.631.055.232.123.468.205.713l4.638-1.588c-.245-1.628-.855-2.85-1.831-3.663-.977-.814-2.4-1.222-4.273-1.222-1.302 0-2.455.157-3.458.469-1.004.312-1.838.753-2.503 1.323a5.563 5.563 0 0 0-1.505 2.014c-.34.774-.508 1.622-.508 2.545 0 .869.102 1.607.304 2.217.204.612.462 1.134.774 1.568.312.435.65.788 1.017 1.06.366.27.725.486 1.079.65l1.342.692c.57.298.99.617 1.261.956.27.34.407.78.407 1.323 0 .462-.163.835-.488 1.12-.325.284-.841.426-1.546.426-.435 0-.922-.107-1.465-.325a8.657 8.657 0 0 1-1.506-.773c-.57-.299-1.139-.664-1.709-1.1l-2.522 4.56c.732.461 1.519.854 2.36 1.18.705.299 1.498.57 2.38.814a9.91 9.91 0 0 0 2.665.367c1.356 0 2.55-.184 3.58-.55 1.031-.366 1.893-.861 2.584-1.485a6.2 6.2 0 0 0 1.567-2.158c.352-.814.529-1.682.529-2.605 0-.869-.101-1.6-.306-2.198a4.939 4.939 0 0 0-.813-1.526 5.486 5.486 0 0 0-1.16-1.08 30.527 30.527 0 0 0-1.383-.895l-1.058-.61c-.299-.19-.617-.441-.956-.753-.34-.312-.509-.726-.509-1.242 0-.298.088-.617.265-.957.176-.338.535-.508 1.078-.508m19.205-9.85-5.656 1.26-1.668 4.682h-3.988v4.722h3.011l-2.034 10.054a7.99 7.99 0 0 0-.163 1.548c0 1.275.393 2.244 1.18 2.909.786.666 2.116.997 3.988.997.813 0 1.572-.04 2.278-.122a14.58 14.58 0 0 0 1.872-.325c.623-.136 1.18-.3 1.667-.489v-4.6c-.406.137-.812.259-1.22.366-.353.082-.712.158-1.078.226a5.26 5.26 0 0 1-.916.1c-.46 0-.773-.067-.935-.203-.163-.135-.244-.339-.244-.61 0-.136.006-.34.02-.611.013-.27.047-.474.102-.61l1.708-8.63h4.314l.732-4.722h-4.15l1.18-5.943zM159.8 8.913c2.278 0 3.919.462 4.923 1.384 1.004.923 1.505 2.132 1.505 3.623 0 1.14-.278 2.198-.833 3.175-.557.977-1.343 1.831-2.361 2.565-1.017.732-2.224 1.33-3.622 1.79-1.396.462-2.922.774-4.576.937 0 .109-.008.25-.02.428-.015.176-.021.332-.021.467 0 .679.19 1.167.57 1.465.38.3.854.449 1.423.449.38 0 .902-.082 1.567-.244a30.01 30.01 0 0 0 2.014-.57 46.15 46.15 0 0 0 2.483-.856l1.382 4.153c-.922.461-1.871.854-2.847 1.18-.841.3-1.77.563-2.787.794-1.018.23-2.015.346-2.991.346-1.384 0-2.537-.203-3.459-.611-.922-.407-1.668-.95-2.237-1.627a6.174 6.174 0 0 1-1.22-2.301 9.487 9.487 0 0 1-.368-2.625c0-1.873.251-3.65.753-5.333.502-1.682 1.241-3.16 2.218-4.436a10.784 10.784 0 0 1 3.601-3.033c1.424-.746 3.057-1.12 4.903-1.12zm16.804 0c1.872 0 3.296.408 4.272 1.222.977.814 1.587 2.035 1.832 3.663l-4.639 1.588a8.116 8.116 0 0 1-.204-.713 2.339 2.339 0 0 0-.244-.63 1.186 1.186 0 0 0-.447-.448c-.19-.108-.449-.163-.774-.163-.543 0-.902.17-1.077.508-.177.34-.265.66-.265.957 0 .516.169.93.509 1.242.339.312.657.563.956.752l1.057.611c.489.3.95.597 1.384.896.434.299.82.658 1.16 1.079.338.42.61.929.813 1.526.204.597.305 1.33.305 2.198 0 .923-.177 1.79-.529 2.605a6.2 6.2 0 0 1-1.566 2.158c-.691.624-1.553 1.119-2.584 1.485-1.03.366-2.225.55-3.58.55a9.91 9.91 0 0 1-2.665-.367 19.307 19.307 0 0 1-2.38-.814 13.678 13.678 0 0 1-2.36-1.18l2.522-4.56c.57.436 1.14.801 1.709 1.1.46.298.962.557 1.506.773.542.218 1.03.325 1.465.325.704 0 1.22-.142 1.545-.426.326-.285.489-.658.489-1.12 0-.542-.137-.984-.407-1.323-.272-.339-.692-.658-1.262-.956l-1.342-.693a6.176 6.176 0 0 1-1.078-.65 4.74 4.74 0 0 1-1.017-1.059c-.313-.434-.57-.956-.774-1.568-.203-.61-.305-1.348-.305-2.217 0-.923.17-1.771.509-2.545a5.563 5.563 0 0 1 1.505-2.014c.665-.57 1.498-1.011 2.502-1.323 1.003-.312 2.157-.469 3.459-.469zm-37.067.041c.38.434.664.944.854 1.527.19.584.285 1.2.285 1.851 0 .3-.02.666-.06 1.1a73.234 73.234 0 0 1-.225 1.954c.678-2.307 1.506-3.942 2.482-4.905.977-.963 2.183-1.445 3.622-1.445a6.62 6.62 0 0 1 2.176.345c.665.231 1.24.618 1.73 1.16l-3.338 5.292a7.175 7.175 0 0 0-.975-.814c-.353-.244-.8-.366-1.343-.366-.38 0-.74.142-1.079.428-.339.284-.65.658-.936 1.118a8.891 8.891 0 0 0-.752 1.568 13.813 13.813 0 0 0-.529 1.77l-1.953 9.933h-6.307l2.075-10.42a23.6 23.6 0 0 0 .305-1.893c.068-.583.102-1.12.102-1.609 0-1.275-.17-2.292-.508-3.053-.34-.758-.59-1.275-.753-1.546l5.127-1.995zm19.286 4.681c-.706 0-1.356.4-1.953 1.2-.597.802-1.058 1.84-1.384 3.115 1.465-.19 2.584-.616 3.358-1.282.773-.665 1.16-1.31 1.16-1.933 0-.734-.394-1.1-1.18-1.1zm38.593 5.841c-.34-.42-.727-.78-1.16-1.079a31.678 31.678 0 0 0-1.383-.895l-1.059-.61a6.99 6.99 0 0 1-.956-.753c-.339-.312-.508-.726-.508-1.242 0-.298.087-.617.264-.957.176-.338.536-.508 1.079-.508.325 0 .583.054.773.163.19.108.338.258.447.447.108.19.19.401.244.631.054.232.122.468.203.713L200 13.799c-.244-1.628-.854-2.85-1.83-3.663-.977-.814-2.402-1.222-4.273-1.222-1.302 0-2.456.157-3.459.469-1.003.311-1.838.753-2.502 1.323a5.574 5.574 0 0 0-1.506 2.014c-.339.774-.508 1.622-.508 2.545 0 .869.102 1.607.305 2.217.203.612.461 1.135.773 1.568.312.434.652.788 1.017 1.059.366.27.726.488 1.079.651l1.342.692c.57.298.99.617 1.262.956.27.34.407.78.407 1.323 0 .462-.163.834-.489 1.12-.325.284-.84.426-1.546.426-.434 0-.922-.107-1.465-.325a8.677 8.677 0 0 1-1.505-.773c-.57-.299-1.14-.665-1.709-1.1l-2.523 4.56c.733.462 1.52.854 2.36 1.18.706.299 1.499.57 2.38.814.882.245 1.77.367 2.666.367 1.356 0 2.549-.184 3.58-.55 1.03-.366 1.892-.86 2.584-1.485a6.22 6.22 0 0 0 1.566-2.158c.353-.814.53-1.682.53-2.605 0-.869-.102-1.6-.306-2.198a4.955 4.955 0 0 0-.813-1.527M28.659 7.701c-1.54-3.376-4.501-6.127-8-7.31C16.7-.842 12.18.924 9.993 4.517 8.906 6.22 8.495 8.289 8.532 10.29l-.04 1.599-.308 12.788h5.45s-.034-1.464-.08-3.34a5.788 5.788 0 0 1 1.67-4.213l3.45-3.48a3.607 3.607 0 0 0 0-5.07L17.33 7.22l-4.02 4.056-.042-1.784c-.154-2.476 1.649-4.751 4.077-5.251 1.353-.314 2.776.036 3.97.736 1.784.985 3.293 2.435 4.23 4.256 3.664 6.968-.688 16.54-8.271 18.446C9.026 29.886.745 23.348.683 14.752A13.898 13.898 0 0 1 1.948 8.66a14.137 14.137 0 0 1 3.825-4.985C-1.7 9.138-1.926 20.515 5.14 26.46c5.14 4.548 13.456 4.773 18.752.331 5.526-4.374 7.746-12.574 4.767-19.09" fill="#FFF" fill-rule="evenodd"/>
</svg>
